# xmcd
#
# Track frame offsets: 
#        150
#        14292
#        34933
#        47838
#        62175
#        82736
#        97190
#        115529
#        134790
#        150143
#        168605
#        186782
#        207746
#        220694
#        242453
#        263794
#        281199
#        293266
#        309477
#        321375
#
# Disc length: 4515 seconds
#
# Revision: 0
# Processed by: cddbd v1.5.2PL0 Copyright (c) Steve Scherf et al.
# Submitted via: ExactAudioCopy v0.99pb4
#
DISCID=2011a114
DTITLE=Kenny Rogers - Kenny Rogers [CDOne)
DYEAR=2004
DGENRE=Country
TTITLE0=Back To The Well
TTITLE1=Listen To The Rain
TTITLE2=727 East Magnolia Avenue
TTITLE3=Owe Them More Than That
TTITLE4=Prairie Wedding
TTITLE5=I'm Missing You
TTITLE6=Harder Cards
TTITLE7=Tears In Gos's Eyes
TTITLE8=Suitecase Full Or Blues
TTITLE9=You have No Idea
TTITLE10=Handprints On The Wall
TTITLE11=Love Like This
TTITLE12=As Time GHoes By
TTITLE13=Have I Told You Lately
TTITLE14=Always And Forever
TTITLE15=I Swear
TTITLE16=Glory Of Love
TTITLE17=The Wind Beneath My Wings
TTITLE18=Desperado
TTITLE19=Some Where My Love
EXTD=
EXTT0=
EXTT1=
EXTT2=
EXTT3=
EXTT4=
EXTT5=
EXTT6=
EXTT7=
EXTT8=
EXTT9=
EXTT10=
EXTT11=
EXTT12=
EXTT13=
EXTT14=
EXTT15=
EXTT16=
EXTT17=
EXTT18=
EXTT19=
PLAYORDER=
